<svg version="1.1" xmlns="http://www.w3.org/2000/svg" xmlns:xlink="http://www.w3.org/1999/xlink" width="193.51953" height="146.01707" viewBox="0,0,193.51953,146.01707"><g transform="translate(-143.58336,-106.48294)"><g data-paper-data="{&quot;isPaintingLayer&quot;:true}" fill="none" fill-rule="nonzero" stroke="none" stroke-width="none" stroke-linecap="none" stroke-linejoin="miter" stroke-miterlimit="10" stroke-dasharray="" stroke-dashoffset="0" font-family="none" font-weight="none" font-size="none" text-anchor="none" style="mix-blend-mode: normal"><g data-paper-data="{&quot;origRot&quot;:0,&quot;origPos&quot;:null}" fill="none" stroke="#000000" stroke-width="2" stroke-linecap="round"><path d="M240.22837,251.50001v-143.33086" data-paper-data="{&quot;origPos&quot;:null}"/><path d="M235.43271,113.18984l4.80769,-5.19231l4.32692,5.19231" data-paper-data="{&quot;origPos&quot;:null}"/></g><path d="M193.00002,180.00001c0,-25.95738 21.04262,-47 47,-47c25.95738,0 47,21.04262 47,47c0,25.95738 -21.04262,47 -47,47c-25.95738,0 -47,-21.04262 -47,-47z" data-paper-data="{&quot;origPos&quot;:null}" fill="none" stroke="#000000" stroke-width="2" stroke-linecap="butt"/><g fill="none" stroke="#000000" stroke-width="2" stroke-linecap="round"><path d="M335.4167,180.00001h-190.83334" data-paper-data="{&quot;origPos&quot;:null}"/><path d="M330.396,175.20435l5.1923,4.80769l-5.1923,4.32692" data-paper-data="{&quot;origPos&quot;:null}"/></g><g data-paper-data="{&quot;origPos&quot;:null}" stroke-linecap="butt"><path d="M200.50002,155.70001h79l-39.5,71.1z" data-paper-data="{&quot;origPos&quot;:null}" fill="#ff0000" stroke="#000000" stroke-width="2"/><path d="M239.6278,156.65001h38.22222l-37.84722,68.575z" data-paper-data="{&quot;origPos&quot;:null}" fill="#000aff" stroke="none" stroke-width="0"/></g><path d="M225.66955,173.80041c0.15995,5.31098 6.71994,1.2175 6.51713,1.68275c-1.21833,2.79489 -1.84342,3.72622 -4.49691,3.72622c-2.62738,0 -4.75728,-2.48003 -4.75728,-5.53931c0,-3.05928 2.12991,-5.5393 4.75728,-5.5393c0,0 3.07813,-0.46945 4.48972,3.70322c0.23288,0.6884 -6.69907,-4.31349 -6.50993,1.96642z" data-paper-data="{&quot;origPos&quot;:null}" fill="#000000" stroke="#ffffff" stroke-width="1" stroke-linecap="butt"/><path d="M244.61556,173.84763c0,3.05928 -2.12991,5.53931 -4.75728,5.53931c-2.62738,0 -4.75728,-2.48003 -4.75728,-5.53931c0,-3.05928 2.12991,-5.5393 4.75728,-5.5393c2.62738,0 4.75728,2.48002 4.75728,5.5393zM240.00657,176.8976c1.64634,0 2.38034,-1.91972 2.38034,-3.16236c0,-1.24264 -0.97133,-2.90168 -2.51068,-2.90168c-1.53935,0 -2.51067,1.65904 -2.51067,2.90168c0,1.24264 0.99467,3.16236 2.64101,3.16236z" data-paper-data="{&quot;origPos&quot;:null}" fill="#000000" stroke="#ffffff" stroke-width="1" stroke-linecap="butt"/><path d="M251.17847,179.54313c-2.44075,0 -0.24321,0.5884 -1.03401,-7.96968c-0.15429,-1.66981 -3.49672,0.52887 -3.20281,-0.09145c1.08345,-2.28671 1.9576,-2.49613 4.10648,-2.49613c2.14889,0 3.58766,-0.71205 4.68605,2.24212c0,0 -3.56866,-1.34169 -3.61612,0.06901c-0.2872,8.53672 1.68778,8.24613 -0.9396,8.24613z" data-paper-data="{&quot;origPos&quot;:null}" fill="#000000" stroke="#ffffff" stroke-width="1" stroke-linecap="butt"/><g data-paper-data="{&quot;origPos&quot;:null}" fill="#000000" stroke="#ffffff" stroke-width="0.5" stroke-linecap="butt"><path d="M225.04489,184.91219c1.71,0.41367 1.70752,0.38219 1.87022,1.27152c0.20028,1.09468 -0.74887,1.8078 -2.16272,1.54072c-0.59736,-0.11284 -1.62991,-0.05691 -1.9642,-0.55333c-0.82401,-1.22367 3.11271,0.46527 2.90711,-0.8239c-0.08899,-0.55796 -1.76751,-0.90995 -2.3025,-1.12433c-1.91161,-0.76602 -0.06631,-3.36955 1.35959,-3.36955c0,0 1.65083,-0.2422 2.4366,1.96252c0.26608,0.74657 -1.427,-1.07697 -2.26677,-0.81698c-1.11378,0.34482 -2.09982,1.37569 0.12268,1.91334z" data-paper-data="{&quot;origPos&quot;:null}"/><path d="M239.09686,184.86877c0,1.66029 -1.15592,3.00621 -2.58181,3.00621c-1.42589,0 -2.58181,-1.34592 -2.58181,-3.00621c0,-0.97348 -0.30373,-2.53976 0.38514,-2.54377c1.63879,-0.00952 0.3842,4.42058 2.36333,4.31534c1.97913,-0.10524 0.62064,-4.45076 1.85609,-4.53972c0.91981,-0.06623 0.55906,1.10786 0.55906,2.76815z" data-paper-data="{&quot;origPos&quot;:null}"/><path d="M230.36494,187.84865c-1.32461,0 -0.13199,0.31933 -0.56116,-4.3252c-0.08373,-0.90622 -1.89769,0.28702 -1.73819,-0.04963c0.588,-1.24102 1.0624,-1.35466 2.22861,-1.35466c1.16621,0 1.73752,-0.29206 2.54315,1.21681c0.26277,0.49214 -1.93673,-0.72814 -1.96249,0.03745c-0.15587,4.63294 0.91597,4.47523 -0.50993,4.47523z" data-paper-data="{&quot;origPos&quot;:null}"/><path d="M245.48574,185.09099c0,1.66029 -1.15591,3.00621 -2.58181,3.00621c-0.88955,0 -1.90834,0.29548 -2.44302,-0.41544c-0.49646,-0.6601 -0.17623,-1.55925 -0.13879,-2.59077c0.03744,-1.03152 -0.35339,-1.96067 0.32916,-2.65444c0.52057,-0.52913 1.51038,-0.35177 2.25265,-0.35177c1.42589,0 2.58181,1.34592 2.58181,3.00621zM242.98441,186.74623c0.89348,0 1.29182,-1.04184 1.29182,-1.71623c0,-0.67439 -0.52714,-1.74142 -1.36256,-1.74142c-0.34974,0 -1.10824,-0.1281 -1.36547,0.10885c-0.40099,0.3694 -0.09332,0.92896 -0.1082,1.63257c-0.01488,0.70361 -0.30676,1.1718 0.03805,1.57309c0.27936,0.32512 0.61288,0.14314 1.50636,0.14314z" data-paper-data="{&quot;origPos&quot;:null}"/><path d="M248.82526,188.03912c-1.01836,-0.0506 -2.13525,-0.35811 -2.45117,-0.88867c-0.274,-0.46015 1.49665,0.03073 1.88803,-0.45208c0.39138,-0.48281 0.0332,-2.37868 -0.05358,-3.31779c-0.08373,-0.90622 -1.89769,0.28702 -1.73819,-0.04963c0.588,-1.24102 1.0624,-1.35467 2.22861,-1.35467c1.16621,0 1.94705,-0.38644 2.54315,1.21681c0,0 -1.93673,-0.72814 -1.96249,0.03745c0,0 -0.24312,2.54435 0.07691,3.51818c0.22527,0.68546 2.39569,-0.13689 2.07545,0.4068c-0.21858,0.37108 -1.42213,0.94245 -2.60672,0.88359z" data-paper-data="{&quot;origPos&quot;:null}"/><path d="M257.43019,184.86877c0,1.73919 -1.15592,3.14907 -2.58181,3.14907c-1.4259,0 -2.58181,-1.40988 -2.58181,-3.14907c0,-1.73919 1.15591,-3.14907 2.58181,-3.14907c1.42589,0 2.58181,1.40988 2.58181,3.14907zM254.92886,186.60267c0.89348,0 1.29182,-1.09135 1.29182,-1.79779c0,-0.70643 -0.52715,-1.64959 -1.36256,-1.64959c-0.83542,0 -1.36256,0.94316 -1.36256,1.64959c0,0.70643 0.53981,1.79779 1.43329,1.79779z" data-paper-data="{&quot;origPos&quot;:null}"/></g></g></g></svg>